<?xml version="1.0" standalone="no"?>
<!DOCTYPE svg PUBLIC "-//W3C//DTD SVG 20010904//EN"
 "http://www.w3.org/TR/2001/REC-SVG-20010904/DTD/svg10.dtd">
<svg version="1.0" xmlns="http://www.w3.org/2000/svg"
 width="300.000000pt" height="168.000000pt" viewBox="0 0 300.000000 168.000000"
 preserveAspectRatio="xMidYMid meet">
<metadata>
Created by potrace 1.10, written by Peter Selinger 2001-2011
</metadata>
<g transform="translate(0.000000,168.000000) scale(0.100000,-0.100000)"
fill="#ff9900" stroke="none">
<path d="M1312 1524 c-63 -16 -145 -67 -187 -115 -17 -19 -44 -61 -60 -94
l-30 -60 0 -545 -1 -545 6 530 c4 353 9 540 17 560 27 74 40 98 46 84 5 -11 6
-11 4 1 -3 22 40 73 54 64 7 -4 10 -2 7 7 -6 18 26 43 99 77 50 23 71 27 148
27 101 0 150 -10 139 -27 -5 -8 -2 -9 10 -5 21 8 69 -21 59 -36 -3 -6 -1 -7 6
-3 19 12 102 -74 95 -99 -4 -14 -3 -16 4 -7 6 10 16 -1 33 -40 22 -50 24 -65
25 -263 2 -142 6 -211 13 -213 14 -5 15 313 1 389 -43 232 -264 374 -488 313z"/>
<path d="M1223 1258 c-15 -17 -17 -58 -17 -418 -1 -290 2 -402 11 -411 8 -8
69 -11 200 -10 217 1 213 0 213 91 0 31 6 62 13 70 10 12 9 12 -5 1 -16 -12
-18 -10 -18 18 0 17 3 31 8 31 4 0 6 138 4 306 -2 257 -5 308 -18 321 -12 12
-39 15 -131 14 -64 -1 -120 -4 -124 -6 -4 -3 -10 1 -12 7 -3 7 -6 8 -6 2 -1
-7 -18 -8 -51 -4 -41 5 -53 3 -67 -12z m385 -415 l-3 -408 -190 0 -190 0 -3
408 -2 407 195 0 195 0 -2 -407z"/>
<path d="M1342 968 l-2 -277 -57 -4 -58 -3 57 -2 57 -2 4 -117 3 -118 2 118 2
117 65 0 64 0 4 -117 3 -118 2 117 2 117 58 4 57 3 -57 2 -58 2 0 149 0 150
53 4 52 3 -52 2 -52 2 -4 118 -3 117 -2 -117 -2 -118 -65 0 -64 0 -4 123 c-1
67 -4 -3 -5 -155z m138 -128 l0 -150 -65 0 -65 0 0 150 0 150 65 0 65 0 0
-150z"/>
<path d="M1263 993 c15 -2 37 -2 50 0 12 2 0 4 -28 4 -27 0 -38 -2 -22 -4z"/>
<path d="M1918 1189 c-26 -14 -22 -38 7 -49 16 -6 23 -14 19 -25 -5 -11 1 -15
21 -15 19 0 26 -4 23 -17 -1 -10 1 -24 6 -31 13 -21 56 25 56 60 0 42 -15 64
-51 77 -39 13 -59 14 -81 0z m45 -33 c-4 -6 0 -5 9 2 14 11 19 10 35 -8 19
-20 25 -70 7 -60 -5 3 -8 10 -6 17 1 6 -3 15 -9 19 -8 4 -9 3 -5 -4 12 -19 -1
-14 -26 11 -27 26 -34 49 -13 41 8 -4 12 -11 8 -18z"/>
<path d="M1053 1040 c0 -47 2 -66 4 -42 2 23 2 61 0 85 -2 23 -4 4 -4 -43z"/>
<path d="M1921 1076 c6 -13 20 -27 30 -29 17 -5 17 -2 -4 23 -27 35 -40 38
-26 6z"/>
<path d="M1911 996 c-27 -10 -37 -22 -57 -71 -13 -32 -24 -59 -24 -61 0 -1 16
-5 35 -8 41 -8 39 1 20 -161 -15 -126 -17 -253 -7 -395 7 -82 8 -85 32 -85 25
0 25 1 46 165 12 91 23 158 26 150 3 -8 20 -80 39 -160 18 -80 33 -146 33
-146 1 -1 11 -5 24 -8 l22 -7 0 137 c0 76 -5 177 -11 225 l-11 87 -94 -5 -93
-6 9 34 c9 35 15 103 12 152 -2 19 -9 30 -27 37 -30 11 -30 18 -8 64 17 37 26
43 83 57 27 6 44 4 77 -12 39 -19 43 -25 53 -75 12 -56 7 -81 -10 -54 -7 11
-8 6 -6 -15 2 -16 0 -55 -4 -85 -8 -62 0 -104 11 -55 4 17 7 54 8 83 1 40 5
52 17 52 13 0 15 8 9 43 -3 23 -11 56 -16 73 -17 55 -107 79 -188 50z m149
-381 c0 -8 -5 -17 -11 -20 -6 -5 -5 -11 5 -18 12 -10 16 -42 20 -151 3 -98 1
-134 -6 -122 -17 31 -57 206 -52 224 5 13 4 14 -4 3 -11 -15 -27 2 -18 18 4 5
-3 7 -14 4 -12 -3 -22 -17 -26 -32 -2 -14 -11 -39 -19 -54 -8 -15 -10 -25 -5
-22 6 3 10 1 10 -4 0 -6 -4 -11 -9 -11 -5 0 -8 -21 -5 -47 3 -45 -8 -85 -21
-72 -3 4 -7 73 -9 154 -3 82 -1 143 3 136 6 -9 10 -7 14 8 4 18 13 20 76 20
53 0 71 -4 71 -14z m-148 -347 c-8 -8 -9 -4 -5 13 4 13 8 18 11 10 2 -7 -1
-18 -6 -23z"/>
<path d="M1827 793 c-6 -24 -15 -43 -20 -43 -5 0 -1 -7 7 -16 14 -14 14 -18 1
-44 -8 -15 -20 -30 -27 -32 -10 -4 -10 -8 0 -21 8 -9 11 -20 8 -25 -6 -9 -8
-144 -7 -349 1 -59 5 -93 12 -93 7 0 9 75 7 245 -2 135 0 245 3 245 12 0 37
68 28 77 -15 15 2 75 23 80 25 7 23 22 -3 20 -15 -1 -23 -12 -32 -44z"/>
<path d="M1790 788 c0 -19 2 -20 10 -8 13 19 13 30 0 30 -5 0 -10 -10 -10 -22z"/>
<path d="M1857 794 c-4 -4 -7 -17 -7 -28 1 -19 1 -20 11 -3 11 19 8 43 -4 31z"/>
<path d="M518 763 c7 -3 16 -2 19 1 4 3 -2 6 -13 5 -11 0 -14 -3 -6 -6z"/>
<path d="M2101 685 c0 -38 4 -79 8 -90 5 -11 6 16 4 60 -6 104 -11 119 -12 30z"/>
<path d="M500 731 c0 -5 11 -16 25 -25 14 -9 25 -15 25 -13 0 2 -11 13 -25 25
-14 12 -25 18 -25 13z"/>
<path d="M1711 666 c-18 -22 -6 -62 21 -69 28 -8 52 11 38 29 -6 7 -10 21 -8
31 4 23 -34 30 -51 9z m34 -33 c1 -14 -3 -19 -12 -16 -16 6 -18 46 -1 41 6 -2
12 -14 13 -25z"/>
<path d="M366 653 c-6 -14 -5 -15 5 -6 7 7 10 15 7 18 -3 3 -9 -2 -12 -12z"/>
<path d="M1680 601 c0 -10 19 -25 25 -20 1 2 -3 10 -11 17 -8 7 -14 8 -14 3z"/>
<path d="M2453 593 c15 -2 39 -2 55 0 15 2 2 4 -28 4 -30 0 -43 -2 -27 -4z"/>
<path d="M2594 555 c8 -8 18 -15 22 -15 3 0 1 7 -6 15 -7 8 -17 15 -22 15 -5
0 -3 -7 6 -15z"/>
<path d="M2509 543 c-13 -16 -12 -17 4 -4 16 13 21 21 13 21 -2 0 -10 -8 -17
-17z"/>
<path d="M2535 530 c-3 -6 1 -7 9 -4 18 7 21 14 7 14 -6 0 -13 -4 -16 -10z"/>
<path d="M2642 495 c6 -14 13 -24 14 -22 6 6 -9 47 -17 47 -5 0 -3 -11 3 -25z"/>
<path d="M881 484 c0 -11 3 -14 6 -6 3 7 2 16 -1 19 -3 4 -6 -2 -5 -13z"/>
<path d="M2500 489 c0 -5 5 -7 10 -4 6 3 10 8 10 11 0 2 -4 4 -10 4 -5 0 -10
-5 -10 -11z"/>
<path d="M2271 414 c0 -11 3 -14 6 -6 3 7 2 16 -1 19 -3 4 -6 -2 -5 -13z"/>
<path d="M891 404 c0 -11 3 -14 6 -6 3 7 2 16 -1 19 -3 4 -6 -2 -5 -13z"/>
<path d="M1054 295 c0 -66 1 -92 3 -57 2 34 2 88 0 120 -2 31 -3 3 -3 -63z"/>
<path d="M2640 338 c-12 -22 -12 -22 6 -6 10 10 15 20 12 24 -4 3 -12 -5 -18
-18z"/>
<path d="M550 250 c8 -5 22 -9 30 -9 10 0 8 3 -5 9 -27 12 -43 12 -25 0z"/>
<path d="M2058 182 c-20 -2 -42 -10 -48 -18 -17 -19 -70 -19 -70 1 0 21 -86
21 -97 0 -8 -13 -92 -15 -633 -18 -344 -1 -170 -2 385 -2 556 0 897 1 758 2
-230 3 -252 5 -255 21 -2 13 -11 16 -40 14z"/>
</g>
</svg>
